<mxfile host="app.diagrams.net" modified="2024-05-31T21:15:18.932Z" agent="Mozilla/5.0 (Windows NT 10.0; Win64; x64) AppleWebKit/537.36 (KHTML, like Gecko) Chrome/125.0.0.0 Safari/537.36" etag="TQC2wgg2tQKMD4zpal_X" version="24.4.13" type="device">
  <diagram name="PÃ¡gina-1" id="1YX7IaJKqV6EL0vJcJY_">
    <mxGraphModel dx="1434" dy="780" grid="1" gridSize="10" guides="1" tooltips="1" connect="1" arrows="1" fold="1" page="1" pageScale="1" pageWidth="827" pageHeight="1169" math="0" shadow="0">
      <root>
        <mxCell id="0" />
        <mxCell id="1" parent="0" />
        <mxCell id="n0Llzyz8WifSWx2YluN4-6" style="edgeStyle=orthogonalEdgeStyle;rounded=0;orthogonalLoop=1;jettySize=auto;html=1;" edge="1" parent="1" source="n0Llzyz8WifSWx2YluN4-1" target="n0Llzyz8WifSWx2YluN4-2">
          <mxGeometry relative="1" as="geometry" />
        </mxCell>
        <mxCell id="n0Llzyz8WifSWx2YluN4-1" value="Paciente" style="shape=umlActor;verticalLabelPosition=bottom;verticalAlign=top;html=1;" vertex="1" parent="1">
          <mxGeometry x="110" y="240" width="30" height="60" as="geometry" />
        </mxCell>
        <mxCell id="n0Llzyz8WifSWx2YluN4-2" value="Sacar citas" style="ellipse;whiteSpace=wrap;html=1;" vertex="1" parent="1">
          <mxGeometry x="250" y="330" width="140" height="70" as="geometry" />
        </mxCell>
      </root>
    </mxGraphModel>
  </diagram>
</mxfile>
